<?xml version="1.0" standalone="no"?>
<!DOCTYPE svg PUBLIC "-//W3C//DTD SVG 20010904//EN"
 "http://www.w3.org/TR/2001/REC-SVG-20010904/DTD/svg10.dtd">
<svg version="1.0" xmlns="http://www.w3.org/2000/svg"
 width="435.000000pt" height="435.000000pt" viewBox="0 0 435.000000 435.000000"
 preserveAspectRatio="xMidYMid meet">
<metadata>
Created by potrace 1.14, written by Peter Selinger 2001-2017
</metadata>
<g transform="translate(0.000000,435.000000) scale(0.100000,-0.100000)"
fill="#000000" stroke="none">
<path d="M1988 3556 c-79 -28 -136 -62 -273 -161 -110 -80 -177 -117 -245
-135 l-45 -12 30 -13 c17 -6 60 -12 98 -11 37 1 67 -2 67 -5 0 -3 -20 -44 -44
-90 -25 -46 -57 -108 -73 -138 -56 -109 -122 -152 -159 -104 -27 36 -29 62 -9
173 l7 35 -26 -41 c-37 -59 -59 -156 -53 -223 13 -130 74 -192 183 -186 61 3
98 12 149 38 22 10 34 13 28 6 -19 -20 -16 -29 11 -29 64 0 117 43 219 182 31
42 66 79 78 83 35 11 86 -4 103 -30 22 -34 21 -34 -21 -19 -21 7 -51 13 -68
13 l-30 0 45 -42 c70 -65 75 -73 56 -92 -14 -14 -21 -46 -13 -60 1 -2 -38 -31
-86 -64 -97 -66 -176 -140 -199 -186 -16 -31 -18 -119 -4 -162 6 -17 3 -23 -8
-23 -17 0 -19 -8 -16 -52 1 -21 -3 -28 -17 -28 -10 0 -107 27 -216 60 -108 33
-202 60 -209 60 -6 0 -19 7 -29 16 -14 12 -15 22 -8 46 15 54 56 106 94 119
22 8 35 20 35 31 0 38 -83 88 -147 88 -53 0 -62 -12 -56 -74 5 -45 1 -63 -27
-122 -17 -38 -33 -70 -35 -72 -1 -1 -22 2 -46 7 -24 5 -55 12 -69 15 -14 3
-83 21 -155 41 -71 20 -139 39 -150 42 -11 2 -27 7 -35 10 -8 3 -24 8 -35 10
-56 10 -106 37 -111 60 -19 73 -174 1 -174 -81 0 -29 48 -113 69 -121 8 -3 29
2 47 11 31 17 33 17 255 -56 245 -80 318 -108 336 -124 8 -8 8 -29 2 -74 -10
-68 -28 -111 -60 -141 -15 -14 -20 -27 -15 -44 8 -32 87 -66 146 -62 61 5 68
16 41 70 -18 36 -21 55 -17 96 7 60 21 89 44 89 9 0 75 -18 147 -40 71 -22
162 -50 200 -61 153 -45 196 -61 205 -79 9 -17 3 -21 -62 -40 -40 -12 -82 -25
-93 -30 -11 -5 -96 -33 -190 -64 -170 -54 -272 -89 -310 -105 -11 -5 -76 -32
-145 -61 -214 -90 -420 -201 -420 -226 0 -15 34 -37 43 -28 3 3 25 7 49 9 130
10 156 14 333 51 135 28 150 32 150 34 0 1 11 4 25 6 14 3 95 25 180 50 85 25
162 47 170 49 8 3 73 23 144 45 71 22 131 39 133 36 6 -6 -96 -88 -166 -133
-33 -21 -65 -50 -71 -64 -24 -54 24 -153 123 -256 74 -76 126 -113 357 -253
74 -45 151 -95 170 -110 58 -45 69 -45 135 3 33 24 125 83 205 132 187 113
241 152 317 226 90 90 149 211 124 257 -6 11 -46 45 -88 75 -81 57 -133 100
-133 110 0 3 21 -2 48 -10 26 -8 54 -16 62 -18 8 -2 47 -13 85 -25 101 -30
195 -57 230 -66 17 -4 35 -8 40 -10 99 -25 277 -65 335 -74 41 -6 86 -14 100
-16 14 -2 52 -7 85 -11 191 -22 221 -1 98 69 -77 44 -267 138 -278 138 -3 0
-26 9 -51 20 -89 41 -290 111 -549 192 -147 46 -198 62 -210 63 -15 1 -7 46
12 67 12 14 269 104 318 112 6 1 15 4 20 7 9 6 61 21 77 23 3 1 10 4 14 9 4 4
20 7 36 7 22 0 31 -7 43 -36 21 -50 19 -102 -5 -146 -32 -60 -16 -74 75 -68
40 3 95 30 112 56 12 19 10 24 -22 57 -19 20 -35 42 -36 49 0 7 -2 20 -5 28
-13 49 -24 116 -20 126 2 6 51 28 108 48 56 21 112 42 123 46 11 5 90 32 176
61 153 51 156 52 188 36 43 -22 65 -10 94 51 38 79 7 139 -87 167 l-46 14 -18
-36 c-13 -26 -27 -39 -57 -49 -66 -21 -383 -115 -406 -119 -11 -2 -29 -7 -39
-10 -10 -3 -28 -8 -40 -10 -12 -2 -30 -7 -41 -10 -16 -5 -25 5 -52 62 -26 55
-32 80 -32 133 0 64 0 65 -30 70 -46 9 -103 -9 -141 -45 -19 -18 -34 -37 -34
-43 0 -7 17 -20 38 -31 55 -28 102 -92 102 -139 0 -24 -8 -27 -225 -96 -99
-31 -186 -59 -193 -61 -7 -3 -11 -1 -8 3 13 21 14 62 1 62 -18 0 -26 26 -17
53 16 45 5 116 -23 155 -38 50 -107 113 -182 164 -44 30 -69 55 -82 83 l-19
40 69 65 c162 153 210 312 140 455 -17 35 -38 66 -46 69 -17 6 -16 7 -20 -49
-1 -22 -4 -51 -5 -65 -1 -14 -10 14 -20 61 -26 125 -90 213 -190 261 -71 34
-205 36 -292 4z"/>
</g>
</svg>
